<?xml version="1.0" standalone="no"?>
<!DOCTYPE svg PUBLIC "-//W3C//DTD SVG 20010904//EN"
 "http://www.w3.org/TR/2001/REC-SVG-20010904/DTD/svg10.dtd">
<svg version="1.0" xmlns="http://www.w3.org/2000/svg"
 width="209.000000pt" height="169.000000pt" viewBox="0 0 209.000000 169.000000"
 preserveAspectRatio="xMidYMid meet">
<metadata>
Created by potrace 1.10, written by Peter Selinger 2001-2011
</metadata>
<g transform="translate(0.000000,169.000000) scale(0.100000,-0.100000)"
fill="#000000" stroke="none">
<path d="M755 1529 c-4 -6 -6 -75 -6 -155 l2 -144 -54 0 c-36 0 -59 5 -67 15
-14 17 -100 21 -100 5 0 -5 5 -10 10 -10 6 0 10 -7 10 -15 0 -8 -4 -15 -10
-15 -5 0 -10 -4 -10 -10 0 -16 86 -12 100 5 8 10 31 15 66 15 l54 0 -1 -57 c0
-32 -4 -95 -8 -141 -3 -46 -3 -86 1 -88 5 -3 8 -1 8 5 0 5 23 38 51 73 70 86
89 127 84 174 -2 22 -2 30 1 19 4 -11 11 -23 17 -27 17 -10 -30 -100 -92 -176
-46 -57 -68 -104 -41 -87 6 3 10 11 10 16 0 6 23 38 50 72 28 34 62 86 76 115
23 49 24 55 10 71 -9 10 -13 21 -9 24 11 11 95 8 88 -3 -8 -13 -3 -13 32 1
l28 11 -25 13 c-30 17 -44 19 -35 5 4 -6 -12 -10 -39 -10 -46 0 -59 13 -36 36
17 17 -16 94 -74 170 -29 39 -56 78 -59 87 -7 19 -23 22 -32 6z m71 -89 c27
-36 57 -84 68 -107 18 -40 18 -44 2 -75 l-17 -33 5 43 c7 50 -5 78 -75 170
-27 35 -49 68 -49 75 0 14 4 9 66 -73z m33 -102 c15 -31 16 -43 7 -73 -11 -34
-13 -35 -60 -35 -40 0 -47 3 -42 16 3 9 6 61 6 116 l0 101 35 -44 c19 -24 43
-61 54 -81z m-234 -113 c0 -5 -16 -11 -35 -11 -33 -2 -33 -1 -5 4 l30 5 -30 8
c-30 7 -30 7 5 6 19 -1 35 -6 35 -12z m235 -28 c0 -13 5 -28 10 -33 10 -10
-36 -89 -89 -154 l-21 -25 0 118 0 117 50 0 c46 0 50 -2 50 -23z"/>
<path d="M950 1009 c-125 -120 -132 -125 -169 -144 -32 -16 -34 -16 -48 5 -22
31 -66 77 -57 60 15 -31 157 -220 165 -220 4 0 29 -19 56 -42 55 -48 109 -73
173 -82 43 -6 44 -6 20 8 -14 9 -35 15 -48 16 -13 0 -37 7 -55 16 -55 28 -165
122 -197 169 l-31 45 26 10 c36 14 37 13 25 -11 -22 -40 -4 -28 38 27 23 29
47 54 53 54 14 0 99 91 99 106 0 6 6 17 14 23 27 22 -4 -71 -38 -114 -17 -22
-31 -53 -32 -68 -1 -19 -14 -41 -42 -68 -23 -22 -42 -45 -42 -52 1 -7 9 -2 19
11 11 12 22 22 25 22 11 0 65 65 66 79 0 7 13 32 29 55 16 25 30 61 33 89 3
26 11 54 18 62 12 14 19 10 63 -32 27 -26 53 -58 58 -70 4 -12 28 -36 51 -52
24 -17 54 -41 68 -54 14 -14 32 -28 40 -32 8 -4 -10 16 -40 44 -63 58 -81 76
-159 160 -32 34 -66 61 -77 61 -10 0 -57 -37 -104 -81z"/>
<path d="M125 620 c0 -217 1 -306 2 -197 2 108 2 286 0 395 -1 108 -2 19 -2
-198z"/>
<path d="M1500 930 c-70 -75 -143 -125 -210 -145 -38 -11 -171 -75 -200 -95
-14 -10 -45 -24 -69 -31 -43 -13 -44 -13 -16 -21 29 -7 54 1 90 31 11 9 47 25
80 35 33 10 72 24 87 32 35 19 43 18 27 -3 -16 -18 -15 -18 64 20 31 16 55 32
53 36 -3 4 1 8 9 8 8 0 15 -7 15 -14 0 -8 -4 -12 -9 -9 -5 3 -25 -10 -45 -30
-37 -37 -129 -100 -178 -121 -16 -7 -28 -18 -28 -25 0 -7 -21 -34 -47 -61 -27
-27 -43 -48 -38 -46 9 4 173 110 249 162 26 18 29 18 23 3 -4 -10 -3 -16 1
-14 14 5 112 117 112 127 0 5 9 20 20 33 51 60 80 102 80 117 -1 10 -6 6 -16
-11 -8 -16 -17 -28 -19 -28 -12 0 -3 38 17 70 l21 35 9 -30 c14 -47 2 -92 -37
-145 -20 -27 -34 -54 -31 -59 9 -14 -45 -86 -104 -135 -47 -40 -55 -44 -61
-29 -6 15 -7 15 -10 -5 -4 -23 -23 -37 -84 -62 -16 -7 -25 -15 -18 -17 7 -2
33 5 59 16 34 15 43 17 34 6 -7 -8 -9 -15 -4 -15 4 0 -1 -7 -12 -16 -19 -15
-18 -15 4 -11 12 3 20 1 16 -4 -3 -5 -11 -9 -17 -9 -8 0 -12 -16 -12 -43 0
-24 -5 -49 -12 -56 -10 -9 -13 -6 -13 18 0 16 4 31 8 33 4 2 0 19 -10 38 -17
35 -17 35 -18 8 0 -40 -1 -42 -12 -55 -8 -9 -7 -13 3 -13 11 -1 11 -3 -1 -13
-17 -14 -23 -47 -8 -47 5 0 6 -6 1 -12 -4 -7 -8 -17 -8 -23 0 -5 -9 -11 -20
-13 -16 -3 -17 -1 -5 7 11 8 12 11 2 11 -7 0 -11 4 -7 9 3 5 1 12 -5 16 -5 3
-10 16 -10 28 -1 17 -5 12 -20 -18 -10 -22 -16 -43 -14 -47 3 -5 -3 -8 -13 -9
-16 0 -16 -1 2 -9 17 -7 17 -9 3 -9 -11 -1 -15 -6 -12 -16 4 -9 0 -15 -10 -15
-19 0 -21 -16 -3 -23 7 -3 5 -6 -5 -6 -20 -1 -25 -21 -5 -21 8 0 7 -4 -3 -10
-10 -7 14 -9 75 -8 50 0 81 3 70 5 -12 2 -26 17 -32 34 -10 26 -10 29 2 19 8
-7 19 -9 25 -5 6 4 24 3 41 0 30 -7 30 -7 10 -22 -12 -8 -19 -19 -16 -24 8
-12 101 -12 125 1 13 7 21 7 25 0 8 -13 101 -13 127 1 15 8 19 8 14 0 -5 -8
23 -11 94 -11 64 0 99 4 95 10 -3 6 1 7 9 4 9 -3 16 -1 16 5 0 6 -7 11 -16 11
-10 0 -14 6 -11 15 4 8 1 17 -5 21 -7 4 -6 9 3 15 11 6 10 9 -4 15 -9 3 -17
13 -17 22 0 8 3 12 7 9 3 -4 12 1 20 11 12 15 13 14 9 -9 -3 -20 0 -26 12 -25
10 0 20 6 24 11 5 6 8 6 8 -2 0 -7 -8 -17 -17 -22 -10 -6 -12 -11 -5 -11 20 0
13 -17 -10 -24 l-23 -7 23 -11 c12 -6 22 -15 22 -21 0 -5 7 -7 15 -3 8 3 15 1
15 -4 0 -6 37 -10 85 -10 l86 0 -2 218 c-1 154 -5 227 -14 247 -12 26 -13 27
-14 8 -1 -12 -6 -25 -11 -28 -6 -4 -7 -11 -4 -17 4 -6 0 -14 -7 -19 -12 -7
-12 -9 0 -9 10 0 11 -3 3 -13 -6 -7 -9 -25 -6 -40 3 -20 0 -27 -11 -27 -9 0
-14 4 -11 9 4 5 0 12 -6 15 -10 5 -10 7 -1 12 9 4 10 11 4 22 -5 9 -10 20 -10
24 -2 8 -6 22 -14 48 -3 8 -6 3 -6 -12 -1 -16 -6 -28 -13 -28 -6 0 -9 -3 -5
-6 3 -3 2 -17 -3 -29 -6 -16 -5 -25 3 -29 9 -3 9 -5 0 -5 -7 -1 -13 -6 -13
-12 0 -5 4 -8 8 -5 4 2 9 -4 9 -15 2 -25 -20 -34 -44 -20 -16 9 -15 10 7 11
14 0 20 4 15 8 -6 4 -10 14 -10 22 1 8 -2 20 -6 25 -4 6 -9 19 -12 30 -4 17
-5 16 -6 -5 -2 -31 -20 -64 -22 -40 -1 8 -1 18 0 23 0 4 -4 7 -10 7 -8 0 -8 5
1 15 7 9 8 15 2 15 -5 0 -8 9 -5 20 3 11 0 20 -6 20 -6 0 -11 5 -11 11 0 5 5
7 10 4 6 -3 10 -2 10 3 0 6 -8 13 -17 16 -15 6 -15 8 -3 16 8 6 11 10 5 10 -5
0 -11 17 -13 37 -4 57 -18 62 -23 8 -2 -16 -7 -36 -12 -42 -5 -7 -6 -13 -2
-13 4 0 2 -6 -4 -14 -9 -11 -9 -15 1 -19 9 -4 10 -6 1 -6 -7 -1 -10 -7 -7 -15
3 -8 0 -17 -6 -21 -6 -4 -8 -15 -5 -26 4 -11 2 -19 -6 -19 -8 0 -8 -4 -1 -12
5 -7 8 -24 6 -38 -4 -24 -3 -24 11 -5 8 11 19 25 24 31 5 7 9 13 8 15 -1 2 6
-4 16 -13 9 -9 17 -22 17 -29 0 -6 7 -9 15 -5 8 3 15 1 15 -4 0 -6 -6 -10 -12
-10 -7 0 -1 -8 12 -17 14 -9 31 -23 38 -30 17 -16 32 -8 32 16 0 26 22 42 40
31 8 -6 11 -10 6 -10 -4 0 2 -9 15 -21 13 -11 18 -17 10 -13 -10 5 -12 3 -6
-6 11 -17 13 -60 4 -60 -9 0 -18 -38 -10 -45 3 -4 7 -11 7 -16 1 -5 2 -10 4
-11 1 -2 3 -11 5 -20 3 -18 -6 -22 -34 -19 -7 2 -10 -3 -6 -9 4 -6 16 -8 27
-4 17 5 19 4 8 -7 -7 -8 -25 -14 -41 -14 -23 -1 -26 2 -18 17 6 12 6 18 -1 18
-5 0 -10 -7 -10 -15 0 -8 -9 -19 -20 -25 -16 -9 -18 -8 -14 5 4 8 1 15 -6 15
-6 0 -9 4 -5 9 3 5 1 12 -5 16 -6 4 -8 9 -6 13 2 4 -14 27 -35 52 -27 31 -39
39 -39 28 0 -10 -4 -18 -10 -18 -5 0 -10 5 -10 11 0 5 -5 7 -10 4 -6 -3 -7
-17 -4 -30 3 -12 1 -26 -5 -29 -7 -5 -7 -15 0 -33 13 -34 0 -43 -62 -43 -55 0
-72 16 -66 59 3 17 1 29 -4 26 -5 -4 -20 6 -35 20 -24 24 -25 24 -19 4 5 -14
3 -19 -3 -15 -6 4 -10 -2 -9 -14 1 -20 2 -20 14 -4 7 10 15 15 18 12 8 -8 -5
-38 -17 -38 -5 0 -7 -9 -3 -19 4 -14 0 -21 -15 -26 -25 -8 -77 3 -86 17 -5 7
-2 8 7 3 12 -8 12 -6 0 8 -8 10 -9 17 -3 17 6 0 9 9 7 21 -3 17 0 20 15 16 11
-3 20 -1 20 4 0 5 -6 9 -12 9 -8 0 -5 7 6 15 11 8 16 15 12 15 -5 0 -3 7 4 15
7 8 9 15 4 15 -5 0 -3 4 4 8 7 5 15 22 18 38 7 38 10 40 34 19 18 -17 20 -17
14 -2 -3 9 -10 17 -16 17 -5 0 -6 5 -3 10 3 6 13 10 21 10 9 0 12 -5 8 -12 -4
-7 -3 -8 5 -4 9 6 9 11 0 22 -10 13 -14 12 -29 -1 -9 -8 -20 -15 -25 -15 -15
0 19 31 52 47 27 13 37 13 46 3 10 -10 7 -11 -12 -5 -17 5 -22 4 -19 -6 5 -15
36 -19 54 -7 6 4 9 29 8 55 -2 28 3 62 12 81 14 29 14 44 4 100 -7 37 -23 88
-36 114 -13 26 -24 59 -24 72 0 14 -5 37 -10 52 -6 15 -8 29 -5 32 13 14 147
-97 159 -133 14 -39 256 -226 256 -197 0 5 -13 15 -30 22 -16 7 -60 39 -97 72
-38 33 -78 67 -90 75 -13 9 -23 21 -23 29 0 30 -138 144 -175 144 -14 0 -47
-27 -95 -80z m114 -87 c3 -10 13 -29 21 -43 9 -15 14 -42 13 -67 -2 -26 2 -45
9 -47 9 -4 9 -14 1 -40 -6 -20 -15 -36 -20 -36 -4 0 -8 -9 -8 -20 0 -11 -7
-20 -15 -20 -8 0 -15 5 -15 10 0 6 6 10 13 10 9 0 9 2 -1 8 -7 5 -10 16 -7 24
4 9 2 19 -4 22 -5 4 -8 18 -5 31 2 14 1 25 -4 25 -4 0 -13 -27 -18 -60 -7 -40
-7 -60 0 -60 6 0 3 -8 -7 -17 -24 -24 -30 -14 -36 60 0 9 -5 17 -10 17 -9 0
-27 -75 -22 -97 1 -7 -3 -13 -10 -13 -6 0 -8 -7 -5 -17 4 -9 1 -20 -6 -25 -11
-8 -11 -10 0 -15 10 -4 10 -8 1 -19 -8 -10 -8 -14 0 -14 8 0 8 -6 -1 -20 -16
-25 -28 -26 -26 -2 3 37 -2 82 -10 82 -7 0 -9 -8 -13 -66 -1 -14 -8 -28 -15
-31 -8 -3 -14 -9 -14 -14 0 -4 8 -5 18 -2 15 6 15 5 4 -10 -15 -18 -46 -11
-38 9 3 7 0 15 -7 18 -7 2 -5 5 5 5 9 1 20 6 24 13 4 7 3 8 -4 4 -8 -5 -12 0
-12 13 0 11 -4 23 -10 26 -5 3 12 27 39 54 34 34 51 61 59 93 6 25 18 51 27
58 8 7 15 19 15 27 0 17 72 162 81 163 4 0 10 -8 13 -17z m-169 -257 c-7 -32
-58 -86 -82 -86 -4 0 -1 5 7 10 8 5 10 10 3 10 -20 0 -8 28 32 69 22 22 41 39
43 37 2 -2 0 -20 -3 -40z m-95 -194 c0 -15 5 -33 11 -39 7 -7 4 -10 -13 -9
-18 1 -23 7 -24 29 -1 15 3 27 8 27 5 0 6 5 3 10 -3 6 -1 10 4 10 6 0 11 -13
11 -28z m-30 -68 c-3 -5 -11 -8 -17 -8 -7 1 -10 -2 -7 -7 3 -5 17 -7 32 -3 23
5 25 3 12 -8 -15 -13 -22 -31 -23 -55 0 -7 -4 -13 -9 -13 -5 0 -6 11 -4 25 3
13 0 28 -6 31 -7 4 -8 2 -4 -4 4 -7 3 -12 -2 -12 -7 0 -10 57 -3 67 4 6 35 -6
31 -13z m86 7 c-4 -5 0 -11 6 -14 10 -3 10 -7 -1 -20 -10 -13 -10 -17 -1 -17
10 0 10 -3 1 -14 -9 -10 -9 -16 -1 -21 8 -5 8 -11 1 -19 -6 -7 -8 -15 -5 -19
5 -4 -13 -3 -34 2 -1 1 2 10 8 21 8 15 8 20 -1 20 -8 0 -9 4 0 13 8 10 7 17
-1 25 -7 7 -8 12 -4 12 5 0 2 8 -5 17 -8 10 -9 14 -2 10 6 -4 14 -3 18 3 3 5
11 10 16 10 6 0 8 -4 5 -9z m170 -66 c-11 -8 -15 -15 -9 -15 6 0 13 -7 17 -15
3 -8 0 -14 -6 -12 -7 1 -12 -3 -13 -10 0 -6 -4 -15 -8 -20 -6 -6 -4 58 2 85 1
1 9 2 19 2 15 -1 15 -2 -2 -15z"/>
<path d="M578 962 c-25 -21 -58 -52 -73 -70 -15 -18 -45 -42 -66 -53 -21 -10
-45 -32 -53 -47 -20 -38 -51 -63 -123 -101 l-63 -32 0 27 c0 42 -19 16 -23
-32 -2 -23 -7 -46 -11 -53 -4 -6 -2 -11 4 -11 6 0 8 -5 4 -12 -4 -6 -8 -54 -8
-105 -1 -76 2 -93 14 -93 11 0 12 -2 3 -8 -8 -5 -14 -42 -16 -105 l-3 -97 46
1 c25 1 37 3 28 6 -10 2 -18 8 -18 13 0 4 9 6 20 3 11 -3 20 -9 20 -13 0 -10
581 -13 605 -4 13 5 14 9 4 15 -16 9 -7 21 18 24 33 4 63 17 63 27 0 6 5 6 14
-1 11 -9 15 -8 20 5 7 19 0 34 -18 34 -7 0 -17 16 -23 35 -7 20 -7 33 -2 29 6
-3 16 0 24 6 20 16 19 6 0 -14 -14 -14 -13 -15 15 -13 16 1 30 6 30 11 0 5 6
4 13 -2 10 -9 17 -6 30 8 9 11 13 20 9 20 -5 0 -17 7 -28 16 -16 13 -16 15 -1
10 19 -6 24 10 5 17 -10 4 -10 6 0 6 18 1 15 21 -4 21 -10 0 -14 6 -10 15 3 8
0 15 -7 15 -8 0 -6 4 3 10 10 6 11 10 2 10 -6 0 -11 3 -10 8 3 15 -15 82 -22
82 -9 0 -21 -51 -22 -92 0 -16 -4 -28 -9 -28 -5 0 -6 -7 -2 -16 4 -12 2 -15
-8 -12 -8 3 -17 18 -20 34 -4 16 -7 21 -8 12 -2 -25 -20 -32 -28 -11 -4 10
-11 21 -17 25 -7 5 -7 8 2 8 9 0 10 5 4 18 -5 9 -7 23 -5 30 3 6 0 12 -6 12
-6 0 -12 10 -12 23 -1 20 -2 20 -6 2 -3 -11 -8 -24 -12 -30 -4 -5 -7 -17 -6
-25 0 -8 -4 -18 -10 -22 -6 -5 -6 -8 2 -8 9 0 8 -8 -2 -27 -9 -17 -11 -29 -5
-31 6 -2 10 -13 10 -24 0 -15 -4 -18 -22 -13 -32 10 -50 29 -20 22 19 -4 21
-3 11 9 -6 8 -8 14 -4 14 4 0 2 7 -5 15 -10 12 -10 15 0 15 9 0 9 4 2 13 -5 6
-12 23 -15 37 l-4 25 -2 -27 c0 -15 -5 -29 -10 -32 -4 -3 -7 -16 -6 -29 2 -15
-2 -24 -12 -24 -10 0 -13 8 -10 24 3 16 -1 23 -12 24 -12 0 -12 2 3 8 14 5 16
10 8 15 -7 4 -10 12 -7 17 4 5 1 9 -5 9 -7 0 -10 6 -7 13 3 7 -1 26 -8 42
l-13 30 -1 -27 c-1 -28 -14 -37 -26 -18 -3 6 -1 10 6 10 10 0 10 3 1 12 -8 8
-3 22 21 55 49 68 51 121 8 208 -19 38 -35 76 -36 85 -6 60 -32 66 -87 22z
m77 -47 c10 -27 27 -63 37 -78 15 -21 18 -35 12 -55 -4 -15 -6 -44 -5 -64 2
-26 -4 -46 -18 -64 l-21 -27 0 24 c0 38 -19 8 -25 -40 -3 -23 -7 -47 -10 -51
-3 -5 1 -10 7 -13 7 -2 10 -8 6 -11 -10 -12 -48 32 -49 57 -1 20 -2 20 -12 -5
-12 -32 -32 -38 -24 -8 3 11 1 23 -4 26 -5 3 -10 20 -10 37 -2 30 -2 29 -9 -8
-6 -39 -7 -40 -18 -15 -12 23 -12 23 -8 3 2 -13 0 -25 -5 -28 -5 -4 -8 -16 -7
-28 0 -12 -3 -35 -7 -50 -7 -25 -5 -28 11 -25 12 2 19 12 18 26 0 18 2 19 14
10 20 -17 52 -20 68 -7 10 8 18 8 27 1 7 -6 26 -9 43 -6 21 3 25 2 14 -5 -8
-5 -18 -7 -24 -4 -5 3 -6 1 -2 -5 4 -7 14 -12 22 -12 8 0 15 -4 15 -10 2 -17
5 -24 19 -52 10 -22 16 -25 27 -16 7 6 16 8 20 4 4 -3 -2 -13 -13 -20 -16 -12
-17 -17 -6 -28 11 -11 12 -10 7 5 -5 13 -2 17 13 17 12 0 26 -8 31 -17 6 -10
11 -14 11 -9 0 5 7 3 15 -4 12 -10 15 -10 15 4 0 9 5 16 11 16 5 0 8 4 4 9
-11 19 17 23 30 5 10 -14 10 -21 2 -26 -11 -7 3 -12 25 -10 17 3 28 -27 19
-51 -5 -14 -8 -27 -6 -29 2 -2 -10 -11 -26 -20 -17 -10 -27 -13 -23 -7 4 8 1
8 -14 0 -11 -6 -22 -15 -24 -20 -4 -12 -78 -22 -78 -10 0 4 -19 5 -42 2 -24
-3 -49 -6 -55 -6 -7 0 -13 -6 -13 -13 0 -7 -8 -10 -20 -7 -19 5 -19 7 -4 18
16 11 16 12 0 18 -10 4 -15 3 -11 -3 3 -6 -2 -11 -12 -11 -10 -1 -36 -3 -58
-5 -78 -7 -95 -5 -111 10 -19 20 -28 20 -43 2 -12 -14 -87 -16 -109 -2 -6 4
-21 2 -33 -4 -11 -7 -23 -9 -26 -6 -9 9 -10 79 -2 109 5 16 4 25 -2 22 -5 -4
-9 -2 -9 4 0 5 5 13 10 16 6 3 7 14 2 23 -9 21 -9 43 2 60 6 11 12 10 28 -5
16 -14 20 -14 16 -3 -2 8 -14 19 -26 25 -12 5 -22 13 -22 17 0 12 18 10 25 -3
4 -6 13 -8 21 -5 8 3 14 0 14 -7 0 -15 37 -20 45 -6 4 5 -3 9 -14 9 -25 0 -26
8 -4 32 10 11 12 18 4 18 -6 0 -11 6 -10 13 1 6 1 24 0 40 -1 32 -21 37 -21 5
-1 -79 -3 -88 -16 -88 -8 0 -14 5 -14 11 0 5 -4 8 -9 4 -5 -3 -12 -1 -16 5 -3
5 2 10 12 10 14 0 15 2 4 9 -8 5 -11 16 -8 25 3 8 2 18 -3 21 -15 9 -12 27 3
19 6 -4 5 1 -4 12 -9 10 -14 25 -12 32 6 17 61 44 73 37 6 -4 22 3 36 14 15
12 32 21 38 21 6 0 26 17 44 37 18 21 31 32 27 26 -3 -7 -2 -13 4 -13 6 0 18
16 27 35 12 25 21 34 33 30 12 -3 26 11 50 53 38 64 80 108 91 95 4 -4 15 -30
25 -58z m258 -497 c-10 -17 -11 -32 0 -39 5 -3 2 -9 -5 -12 -8 -3 -15 0 -15 6
0 7 -2 17 -3 22 -5 22 1 35 16 35 10 0 12 -4 7 -12z m53 -25 c-2 -9 -12 -23
-24 -31 -26 -17 -29 -10 -6 12 8 9 11 16 5 16 -6 0 -11 5 -11 10 0 6 9 10 19
10 12 0 18 -6 17 -17z"/>
<path d="M425 645 c-5 -22 -8 -44 -7 -49 2 -4 -3 -14 -9 -22 -9 -11 -8 -14 2
-14 9 0 6 -8 -9 -22 -17 -17 -24 -20 -34 -10 -9 9 -8 12 8 12 11 0 15 4 9 8
-6 4 -10 17 -9 30 1 12 -3 25 -7 28 -5 3 -10 17 -10 32 -1 20 -2 22 -6 7 -2
-11 -7 -27 -10 -35 -4 -8 -7 -17 -7 -20 -1 -3 -5 -11 -9 -17 -5 -8 -3 -13 4
-13 7 0 4 -7 -7 -16 -16 -13 -16 -15 -1 -10 9 3 17 1 17 -4 0 -6 -4 -10 -10
-10 -5 0 -10 -6 -10 -14 0 -8 -8 -17 -17 -19 -12 -3 -9 -5 8 -6 14 0 30 -6 37
-13 9 -9 12 -8 12 7 0 16 2 17 9 5 6 -8 8 -17 5 -21 -2 -4 0 -11 6 -14 6 -4
10 -3 9 2 -4 23 3 30 27 27 15 -1 30 -8 34 -14 5 -8 9 -7 13 4 4 10 1 16 -8
16 -13 0 -13 4 -3 23 7 12 17 25 21 28 5 3 1 9 -8 13 -9 3 -15 12 -12 20 3 7
0 19 -6 25 -8 8 -8 11 2 11 10 0 10 4 3 13 -6 6 -12 26 -14 42 -4 29 -4 29
-13 -10z"/>
<path d="M844 346 c2 -14 -1 -26 -7 -26 -6 0 -8 -3 -4 -6 3 -3 15 0 26 8 21
15 21 15 2 32 -19 17 -19 17 -17 -8z"/>
<path d="M787 343 c-9 -16 13 -53 30 -52 17 1 17 2 0 6 -12 3 -15 11 -11 29 6
22 -9 35 -19 17z"/>
<path d="M607 275 c-4 -8 5 -23 21 -35 25 -20 27 -20 33 -3 4 12 -1 24 -14 36
-24 21 -33 21 -40 2z"/>
<path d="M1674 548 c-4 -13 -8 -31 -9 -40 -1 -10 -4 -20 -7 -23 -3 -3 8 -20
24 -37 23 -25 31 -29 41 -18 9 10 9 11 -1 5 -8 -4 -19 0 -27 11 -17 22 -19 38
-6 29 6 -3 8 4 5 17 -3 13 -5 35 -5 51 2 33 -5 35 -15 5z"/>
</g>
</svg>
